<?xml version="1.0" encoding="UTF-8"?>
<svg id="Layer_1" xmlns="http://www.w3.org/2000/svg" version="1.1" viewBox="0 0 217 229.8">
  <!-- Generator: Adobe Illustrator 30.6.0, SVG Export Plug-In . SVG Version: 2.1.4 Build 109)  -->
  <path d="M125.2,75.3c-1,0-.6-1.6-.5-2.1s-1.6-1.3-1.9-1.8c-1.6-3.1,5.9-.5,9.5-4.9-1.6.1-2.8.9-4.6.3,2.2-1.5,5.1-1.9,8.2-1.5-.1,3.4-1.5,6.3-3.3,8.8-1.3-2.4.4-4.2.7-6.4-3.7,2-4.2,6.3-8.2,7.6Z" fill="#dad9c0"/>
  <path d="M152.4,116.7c1.1,1.9,1,2.4-1.2,1.6,0-1.4.6-2.9-.6-4.2-.6,2.1-.9,3.5-2.4,3.9,1.9-4.1,3.2-7.2,2.4-10.9,2.8,2.6,7.2,2.9,6.1,5.8-.8-.1-2.8-.4-3.1.3s0,1.1,0,1.7c-.3.2-1.1.4-1.4.7s.1.8.2,1.1Z" fill="#d6d8c8"/>
  <path d="M200.8,33.3c-1.5,2.3-3.5-.1-4.5-.2s-2.7.2-3.2-.7c-.9-1.5-.5-2.7,0-4.4l.5-1.4c.1-.4,1-.8,1.5-.5.9.6-.3,3,.2,4.3s7.2.5,5.6,3Z" fill="#cbd2cd"/>
  <path d="M145.7,110.3l-1.2-2.9c-1.8,2.4-5,3-6.4.7l9.3-4.3c-.1,2.5-.1,3.7-1.7,6.5Z" fill="#acb19c"/>
  <path d="M151.3,118.3c.4-.3,1.1-1,1.2-1.6,1.8,2.4,4.2,4.1,4.8,7.4-1.6,0-2.1-.8-3.3-2.3-.4.9-.2,1.7-1.5,2.8-1-2.1-1.2-4.2-1.2-6.3Z" fill="#a7ae9b"/>
  <path d="M26.3,49.7c-.1,2.3-5.1,3.3-6.1,1.4s.6-3.1,1.6-3.5c1.4-.6,4.6-.4,4.4,2.1Z" fill="#b7c0b9"/>
  <path d="M25.5,28.3c.8,2.4,0,4.8-1.9,6.5-1.3-2-1.9-4.7-1-6.9s2.6-.7,2.9.4Z" fill="#b0b9af"/>
  <path d="M127.7,7.8c-.6.6-2.3-.8-1.9-2,.7-1.8.7-3.5.5-5.4,2.2.2,2.7,1.7,2.9,2.9s.2,2.9-1.5,4.6Z" fill="#bebcb8"/>
  <path d="M135.9,86.3c.2,2.4-4.5,5-6,3.3-.5-2.3,3.4-4.4,6-3.3Z" fill="#b7bdac"/>
  <path d="M21.8,34.3c0,1.5-4.1,2.5-5.7,2-.6-1.7.4-2.6,1.4-3.2s3.8-1.1,4.2,1.2Z" fill="#bdc4be"/>
  <path d="M158.1,104.2c0,1.7-1.3,2.5-2.7,2.3s-2.3-.6-3.4-2.1c1.7-.7,3.8-.8,6.1-.1Z" fill="#b9c0aa"/>
  <path d="M183.6,133.5l1.1,1.5c-.6,4.6-1.6,9.1-3.1,13.4.9,2.3.9,4.1-.2,5.4,2.2,2.9,1.2,4.7-2.3,4.8-.2,2.3-.6,4.6-1.3,7.1,0,2.1.7,4.1,2.4,5.9,1.7,3.1,1.5,5-.5,5.7.4,1.3,1.5,2.2,3.3,2.4l.9,2.5c3.4,2.1,4.8,3.2.4,4.9-1.8,1.6-3.1,1.9-3.9.8,0,1.9-.8,3.2-2.1,4-.4,4.2-8.2,1.2-4.6-1.7-1.6-.4-2.1-2.3-1.4-3.7-.4,0-.5-.3-.2-.6,0-1.4-.4-1.6-1.5-.6-2,1.5-3.1.3-3.6-2,.3-3.4-.1-6.5-1.4-9.3l1.1-4.4c-.3-4.3-.4-8.7,0-13.1h-1.1s-.1-7-.1-7c0-.8.3-1.3.7-1.7.7.7,1.4,0,2-2.1-2-4.2-.9-8.2,3.4-12.2-1.3-1.9-1.2-4,.3-6.4-1.2-3.3-1.7-6.6-1.5-9.9.6-.4,12.7-.7,13.1-.2s.3,1.6-.3,2c2.2,2.1,1.5,7.5-.2,9.7,1.2,1.1,1.4,2.6.7,4.5Z" fill="#f1efe6"/>
  <path d="M173.7,114.5c5.1-.4,10.1-.7,15.1-1,1.5,1.6,1.8,3.9,1.1,6.8l.3,2.5.2,14-.3,13c-.1,0-.4-.4-.9-.4l.2-12.6c-3.8,1.5-1.7,5.2-2.2,10.2-.9-1.1-1.5-1.9-2.6-2.5-1.2,4.6,3.2,5.1,4.2,9.3s-.9,2.2-1.9,1.6l.3-2.3-1.9-1.2c-1.4,5.8,4.8,7.9-1.1,11.1l4.8,8.4-3.1,5.9c1.5,1,2.6,2.5,1.7,4.1l-4.2-2.8c-1.6,0-2.9.4-3.5-1.3.4-2.2-.3-4.9-2.1-6.9-2.4-2.7-1-7.7.5-10.5-.3-.8-.9-2.3-.2-2.7,1.4-.8,4.2.4,3.3-1.2s-2.4-1.3-2.1-2.9,1.5-.5,2-.7l-1.2-4.1c2.5-5,2.2-10.3,3.6-15,0-4.6,0-10.3,1.9-14.5-1.7-.1-2.6-.7-2.7-1.8h-10.7c-1.4,1.7-4.8,1.2-5.7-1.1s1.1-3.2,3-1.2c-.5-2.2,3.7-2.6,4.3-.5Z" fill="#bfb9a2"/>
  <path d="M171.6,104.8c1,1.2.2,2.7-2.3,4.5-.1,1.9-.1,3.9,0,5.8-.9.1-2-.5-2.8,1,7.5,1.7,14.4-.6,21.5,2.2-2.5,2.5-3.5,5.7-3,9s-1,4.5-1.5,6.3c.5-2.6-3.4-3.6-1.7-5.6s1.9-3.3,1.4-5.3-1.2-2.6-3.5-3.5l3.4-1.6h-11.5c-1.1,6.4,4.4,9.6-.4,13.4,1.2.9,1.7,1.8,1.7,2.7s-.5,1.7-1.1,2.4l-2.9,3.1c-1,1.1-1.5,2.2-1.3,3.6s1.5,1.8,2.6,2.8c-1.7,2.3-3.1,4.3-3,7.5-1.6-1.7-1.2-3.4-1.1-4.8l.8-21.6c.1-3.9-.8-7.5-.8-11.3v-10.5c.4-2.3,5-2.1,5.4,0Z" fill="#d0cfc1"/>
  <path d="M193.4,98c0,2.2-.7,3.9-2.2,5.1-1.3,1.1-2,2.6-2.2,4.5,3.4-.2,4.3.6,2.7,2.4-.5.2-.9.8-.9,1.6l-.7,11.4c0-.9-1.3-2.1-.5-3.9s.2-2.3-.2-2.9-1.6-1.5-2.9-1.5h-12.8c-.6-1.1-.5-2,.7-2.2,4.4.2,8.5-.2,12.3-1.1-3.7-.7-3.4-2.5-2.4-5.6-5.6-.9-3.6-3.9.7-5.4l-10.2-.2-1-1.5c2.6-1.3,5.7.2,10.8-1.2,2.7-.8,6.3-.4,8.9.6Z" fill="#d8dace"/>
  <path d="M193.4,98c1,.4,2.1.6,2.9,1.2s.8,2.6-.1,3.1-2.9.1-4.2,0c-1,3.6,3,5.6,2.6,7s-.5,1.4-1.4,1.2-1.1-.2-1.3-.6l-.6-1.1c-.3-.5-1.2-.3-.7.6.9,1.4-1.3,1.9-.7.1-1.1-.5-2.6-1.4-2.3-2.1l.9-2.4c.8-2.2,1.5-3.3,4-3.7-1.1-1.4-1.8-1.8-2.1-3.2h3.3Z" fill="#b7bcac"/>
  <path d="M169.2,100.8c2.4-2.4,6.4,3.6,2.4,4h-5.3s-1.7,0-1.7,0c-.3-1.3.3-2.4,1.7-3.2s1.7-1.2,2.9-.7Z" fill="#9fac8d"/>
  <path d="M173.7,98.6h12.1c.8.1.8,2.7.2,3.1s-2.4.9-4.1,1.2c.5,1.7,2.5,1.2,3.8,1.1.4,2.3-.4,3.2-.8,5.5,1.9-.3,4.4,1.2,3.8,2.5-.8.5-2.9,1.6-3.8,1.6l-9.7.2c-.9,0-1.4.3-1.5.8l-4.3.5c-1.9-1-2.3-4.1-1.3-6.6l3.6-3.7c1.3-1.3-.9-3.2-2.4-4-.2-1.1.4-2.1,1.2-2.3,1.4-.3,2.3,0,3.3,0Z" fill="#f2f1eb"/>
  <path d="M168.5,218.3l-1.3,1.6c-.4.4.9,1.3,1.4,1.6-.6,1.7-2.5,2-5.7.9,1.8.4,3,1.3,3.6,2.5.2.3.3.7.2.9-.2.5-4.7.4-5.7.2l-4.2-1.1c.2-2,1-3.3,2.4-5.3-1.3-.9-2.6-.6-4,0-2,.7-3.2,9.8-10.9,6.5l9.3-7.3c-6.3-4.1-8.6,4.4-15.9,1.4,0-2.2,2.9-3.2,4.9-3,1.9.1,1.7-2,0-1.8-4.2-.6-8.3-.4-11-3.5,2.4-.9,4.3.2,6.3.3l-2.4-3.5c4.3.9,6.6,3.4,10,6.2-.7-2.8-2.3-4.6-1.2-7.1,1.1,2.1,3.6,2.9,4,4.8l.7,3.3c.2.9,1.7,1.3,3.2.9l-2.1-4.4c-.6-1.4,3.1-1.4,4-.7,3.7,3.2-.1,7.8,5.1,6.5-.5-1.5-1-3.1-.9-4.9,1.8.2,1.8,2.5,2.9,3.1s3.3.3,7.6,2.1Z" fill="#bcbea8"/>
  <path d="M201.5,194.3c-1.5-.7-3.2,2.1-4.1,3-1.8-4.6-7.2-7.4-3.4-12.7,3.1,3,2.9,6.6,4,10.6,2.3-2.5,4.9-5.6,4.8-9.2s-2.1-4.5-.4-7.1c2.1,1.9,2.5,4.4,2.3,7.2,3.6-4.6,4.9-9.4,12.2-10.6.3,2.4-1.2,3.7-2.9,4.9l-5.8,4c-.3.2-1.2,1-1.2,1.3s1.7,1,2,1.3c-.7,1.9-3.3,2.5-5.2,4l13.3-2.5c0,2.1-1.2,3.8-2.1,4.6-3.6,3-7.7-2-11-.5,1.6,1.5,2.6,2.2,2.9,3.7-2.3.5-3.3-.8-5.4-1.9Z" fill="#c2c6af"/>
  <path d="M170.6,185.4c.8-1.8,1.8-1.3,1.5.6l.2.6c-.8,1.3-2.3,1.9-4.8,2-.4,1.7-1.3,2.6-2.6,2.5l-.4-7.8c-.9.7-1.6,2.1-2.8,2.5-4.3,1.5-9.2-.7-11-4.3,3.8.2,7.6,2.2,10.9,1.3s3.2-6.2,2.9-8.2c-2,1.6-2.2,3.8-2.8,6.1-3.2-3.8-.1-6.4,2.9-10.6l1-13.3c.5-.7.3-1.8,1.7-2.8,2.1,4.7-.3,8.7,1,15.4.3,1.3-.8,3.2-1.2,4.6,3.3,3.6-.8,11,3.6,11.5Z" fill="#d0cfc1"/>
  <path d="M190.4,225c1.4-.3,2.7.8,3.6,1.8l4.2,2.7h-32s2.5-3.1,2.5-3.1c-3-.2-5.2.1-7.7-.6,1.9-.1,4,.2,5.6-1.1l1-1.4,9.9.8c.7-.9,1.3-1.3,2.5-.8l2.6,2.2c1.6-4.4,5.9-3.9,7.9-.5Z" fill="#d2d5c7"/>
  <path d="M172.3,186.7c1.2.9,1.9,2.2,1.4,3.7,0,3.5-.8,4.7-2.6,3.6-.6,1.1-1.4,1.7-2.3,1.6,0,5.4.1,10.7.5,16l-3.9,1.2h-1.8c-.5.2-.6-.8-.3-.9s1.3-.6,1.3-.9l.2-19.8c.6-3.7,3.9-5.1,7.4-4.5Z" fill="#a4a492"/>
  <path d="M192.6,210.6c.7.6,1.5,1,1.5,2s-.4,1.7-.7,2.5c-.5,1.7-1.2,3.1-2.1,4.1,1.9,1.8,2.6,6.3-.8,5.7-1.5.4-2.8-.7-4-1.2-1.8-.7-2.2,2.5-3.2,3.1-1.6.8-4.1-1.8-3.4-3.5-1.2-1.2-.5-2.4,2.1-3.6l6.4-3.6c1.7-1,1.1-5.7,4.1-5.6Z" fill="#788865"/>
  <path d="M203.9,224.4c.6,3-3.9,4.3-6,2.1-1.3-.3-3-1.3-3.9.4-.6.1-1.5.7-2.3.3s-.9-1.6-1.2-2.1c.7-.9,1.2-2.4.7-3.4s-1.7-1.4-3.1-1.4l5.3-5.1c-2.5,6.3,7.1,5.6,10.5,9.2Z" fill="#9faa90"/>
  <path d="M152,198c-4.3-2.6-5.9,4.7-12.3-1.5-.8-.7,0-2,.4-2.6.5-1,2.4-1.2,3.5-1.5,3-.7,4.2.3,6,2.8.3-2.7.8-5.6,3.2-6.2,1.3,0,1.5,2.5,1,3.6s-1,2.7-3.9,2.9l2.1,2.4Z" fill="#abb4a5"/>
  <path d="M213,169.4c-1,4.2-4.2,6.7-6.5,10.6-.4-2.4-1.9-3.8-4.1-5.2,1.1-1.6,1.8-3.3,1.5-5.3s1.8-3.7,2.6-2.8c1.9,2,.7,5.5,1.3,8.1,1.8-1.7,1.5-4.8,5.2-5.4Z" fill="#b6b9a2"/>
  <path d="M140.8,174.7c.6,1.6.3,3.6-1,5.9h-.7c-1.4.8-2.9,1.4-4.5,1.6-1.4-1-3.4-2.2-2.6-3.8s2.5-2.5,4.8-2.4c-.5-2.2-1.8-4.9-.8-6.7l1.9,1.3,2-1.6c1.6,2.1-.9,5.1.7,5.5Z" fill="#d7dbd6"/>
  <path d="M160,189.4c3.5,5.4,2.8,12-2.7,13.9-2.1-5-.8-10.2,2.7-13.9Z" fill="#b8bfa6"/>
  <path d="M144.3,188l-1.2.8c-2.2-1.5-2.2-1.2-1.7,1.7-3.4,1.6-8.3-1.7-9-5.5,2.3-.2,3.9-.3,4.9-1.4-.6-1.4,0-1.7,1-.6-.8,1.1-.2,1.3.7,1.9s1.7.4,2-.7l.4-1.6,1.3.4c5.9-4,5.5,2.5,1.6,5Z" fill="#d7dbd6"/>
  <path d="M214.1,219.1c-2.8-.7-6.8-4.3-4.2-6.9,2.2,0,2-3.3,3.4-4s1.7.6,2.2,1.1c3.4,3.7.1,9-1.4,9.7Z" fill="#ced4c8"/>
  <path d="M209.1,219c0,.7-.8,1.6-.4,2.3,2.9-.4,5.2,0,6.7,2.4-3.3,1.7-7.2,1.7-9.9,0l-.9-1.3c2.2-2.6,1.8-3.2-1.4-1.9-.7.2-2,0-2.3-.7.3-2.2,1.3-3.4,2.9-3.8,0,.4-.1.9,0,1.2s.9.8,2,.5c.4-.6.3-1.7.4-2.6,2.2-1.7,5.7,2.4,2.9,3.9Z" fill="#d6d9d2"/>
  <path d="M209.9,212.3l1.4,3.7c1.7.8,3,1.5,2.8,3.2-1.6.7-3.4.3-5-.1,0-2.2-1.6-2.8-2.9-3.9s-.4-4.8,1-5.8c1.4,1,2.3,1.9,2.7,3Z" fill="#8b967f"/>
  <path d="M153.5,162.8c1.3.3,1.9.7,3,.6.3-2.6,1-4.8,2.9-6.1,1.9,4.4-.3,8-2.4,12.6-2.2-1.4-3.3-4.1-3.4-7.1Z" fill="#c1c3b2"/>
  <path d="M144.3,188c0-1.7.9-3.3,1.8-5.5-1.6-.3-2.6,1.6-3.8,1.9s-1.3-1.4-1-1.8c1.9-1.7,4.7-1.8,7.6-2,.2,3.4-.8,6.6-3.2,8.8-.6,0-1.3-.9-1.5-1.4Z" fill="#93a194"/>
  <path d="M156.2,202.3c-1.7,4.3-6.1,5.9-10.2,4.4,3.4-3.3,7.3-6.9,10.2-4.4Z" fill="#c0c3a8"/>
  <path d="M139.8,180.6c-1.7-1.9-.4-4.1,1-5.9s2.3-1.8,2.8-1c1.1,1.7.4,3.6-.1,4.8s-2.1,2.1-3.7,2.1Z" fill="#8fa18f"/>
  <path d="M197.9,226.4c2.1.5,4.2-1.1,6-2.1.6.6,1.9.9,2,1.9s0,2.5-.8,2.8c-2.7,1.1-5.9-.5-7.2-2.7Z" fill="#d2d5c7"/>
  <path d="M150.2,169.9c2.8.5,7.6,4.1,7.9,6.7-3.9.1-6.8-2.6-7.9-6.7Z" fill="#c5c7b5"/>
  <path d="M163.7,165.3c-.2,3.5-2.2,6.3-5.5,8.1-.2-3.1,1.7-6.8,5.5-8.1Z" fill="#b8b9a6"/>
  <path d="M203.7,215.9c-.5,1.8-.8,4-2.9,3.8-1.2-2.6-.7-6.2,2.3-8.1,1.3,1.4,1,3,.6,4.2Z" fill="#929b87"/>
  <path d="M203.7,201.4c.6,1.5-.9,2.5-1.6,2.8s-2.1.3-2.7-.1c-1-.6-1.3-2.7-.4-3.7s4-.7,4.7,1Z" fill="#d2d3bc"/>
  <path d="M205.5,223.7c-1.2-.8-2.5-1.4-2.4-3.2.2-1.1.9-2.1,1.9-2.2,1.4,0,2.6.1,3.3,1l-2.8,4.3Z" fill="#929b87"/>
  <path d="M143.1,188.8c-.5.3-.9,1.3-1.7,1.7-.3,0-1.9-.3-1.9-1s.4-2.3.9-3.3,1.9-.3,2.3.5.7,1.3.4,2.2Z" fill="#909d91"/>
  <path d="M139.1,180.6l-.8,2.5c-.3.1-.8.3-1,.6-1.6.6-1.9-.9-2.6-1.4.4-.9,1-1.6,1.5-2,1-.7,2.1-.3,2.9.4Z" fill="#8ba08e"/>
  <path d="M173.7,190.4c0,1,.5,1.9,1.3,2.2,1.2.5,2.5-.4,3.3-.5,1.6.7,3.6,1.8,6,2l-2.3,5.1c-1.9,1-3.7,0-5.4-3.1l-1.2-.5-.4,1.5c1.1.6,1.5,1.4,1.1,2.4.3,2.5-1.8,2-3.3.5-3.5,1.1-5.7-5.3-1.6-6,3.3-2-3.3-1.8-3-4.4,2.3,0,3,2.6,5.5.8Z" fill="#d1d2c0"/>
  <path d="M172.1,186.1c-.4-.3-.9-.6-1.5-.6,0-.8.2-1.8.8-2.2.8-.5,1.8,0,1.8.8s-.4,1.6-1.1,2Z" fill="#a4a492"/>
  <path d="M171.1,194c-1.6,2.6-.3,4.1,1.6,6,3.3-.2,4.3,4.2,1.9,6.2.5,1,1.3,1.8,2.3,2.3,1.6-.5,4.2-1.6,5.4.4-6,3-11.7,2.3-13.1,2.7-.8-.1-1.6-.5-1.8-.9-.5-.9,0-1.9,0-2.6l-.2-13.4c1.4-.6,2.6-.7,3.8-.6Z" fill="#ecebe5"/>
  <path d="M182,219.8c-.5,1.3-1.3,2.4-2.1,3.6l-1.6,2.4-11.8-.9c-2.7,0-5.9-1.8-6.6-3.2-1.3-2.6,4.8,0,8.7-.2l9.7-.8c1.3-.1,2.7-.3,3.6-.8Z" fill="#f2f1ed"/>
  <path d="M182,199.2l-.3,1.7c-1.1.5-2.6-.4-3.4-.3-.9.7-.8,2.1-1,3s.2,1.9,1.6,2c2,.1,1.9.8,0,1.4-1,0-1.8.6-2,1.6-.4.1-.9.8-1.4.8-1,0-2.8-3.6-3.1-3.4l2-1.4c.4-1.5-.8-3.6-1.7-4.5l3.3-.5c-1-1.6-1.2-2.9-.6-3.9,1-1.8,2.7,1.6,6.6,3.6Z" fill="#a6ad95"/>
  <path d="M190.4,136.9c.8,1.2.8,2.9.7,4.7-.5,18.7-.5,36.9,0,55.5l.2,6.7c0,2.2-.7,5.2,1.2,6.8,0,.4,0,.7,0,1-.7,1.7-2,4.4-3.2,5.7s-6,4.2-7.3,2.6c-2.1,2.7-8.8,3.2-12.2,3l-1.1-1.4c-3.8-.3-3.6-3.6-.1-3.1l3.6-3.1c.2,1.3-.3,1.9-.6,3.3,3.7,1.1,7.3.6,10.6-.5-2.4-2.4-6.3,0-6.1-3.3,2.4.2,4.1-.4,5.3-2.5l-16,.7c-.3-2.1,1-2.5,3.9-1.2,0-1.6,1.8-2.2,5-2,2,.7,5.7-.3,2.6-1.2-2.3-1.6.5-4,2-1.6v-1.4c-1.2,1.5-2,1.2-2.8-.5-1.7-3.6,3-8.3,5.7-4.1,2.2,0,3.9-.8,5.2-2.6-1.7-.4-2.5-1.8-2.2-4.1,1.7-1.8,2.2-2.7,1.3-2.8-2.6,1.4-7.1-.1-5.5-3.2,1.5,0,2.9-4.3,4.3-2.1s1.4-.6,1-1c-2.8-.7-3.8-2-3.8-5-.9.4-2.1.6-2.2.1-.2-.9-.1-2.1,0-2.6,1.7-.4,3.4-.2,4.9.4.4-2.1,1.3-4.2,2.6-6.1-1.8-2.9-3.2-5.9-4.2-9,2.5-1.6,2.7-3.8.8-6.8-.5-2-.7-3.9,1.4-5-2.6-2.5-4-6.8.4-7.6-.5-3.3-.1-7.8,4-7.4,0,1.5.3,1.8.7.9Z" fill="#d1d2c0"/>
  <path d="M181.7,200.9c-2.1-.5-1.8-1.5.3-1.7-1.2-.7-1.2-2,.1-4-2.4-.3-3.7-1.4-3.8-3.1-.2-1.8.2-3.9,2.1-4,.9,1.5,2.4,2.7,4.7,2.3-.6-1-.6-1.5-.4-2.3s.7-1.9,1.8-1.1c.1.4-1.3,2-.2,2.8s1.7,1,1.8,1.7-.5,1.5-1.5,2.2-.5,2.9.3,3.4l1.1-1.2c1.7-1.9,1.7,4.4-3.8,6.2s-2-1.1-2.5-1.3Z" fill="#8b937d"/>
  <path d="M178.9,206.9v-1.4c0-1,.4-1.9,1.3-2.3,1,1.4,2.2,1.8,3.7.8.5.5.3,1.6,0,2.2s-1,.7-1.9.7h-3.1Z" fill="#979e84"/>
  <circle cx="184.9" cy="215.2" r="1.6" fill="#839172"/>
  <path d="M175.4,195.6c1,1.7,2.3,2.4,1.6,3.4s-.5.4-1,.5c-.4-.7-1.2-.8-2.4-.9s-.9-1.6-.3-2.2,1.2-.8,2.1-.8Z" fill="#ecebe5"/>
  <path d="M151.1,46.3l1.3-1c-5.3-7.1,7-8.3,7-2.2.7.2.6.5,0,.7.1,1.6-.3,3.3-1.4,5-.5.9-1,2-1.5,3.3l-.2,1.6c-1.9,1.4-2.6,3.4-2,5.9-.8.3-2.1.2-2.2-.5l-.2-2.4c-1.9-4-5.2-7-9.1-9l-13.4-6.7-6.3-2.7c-1.8-.8-4.7-1.2-6.7-1.5-14.9-2.6-31.7,5-30.2,6.4s6.4,1.9,5.3,7.3c-3.9-1.7-6.1-3.9-8.4-6.8-1.2,2.5-3.3,2.5-5.1,3.7l-5.4,3.6c-9.7,8.2-15.7,19.4-18.6,31.6-.8,3.4-2.1,6.6-.9,10.1s2.8,1,3.5.9c-.2.5-.8,1.1-1.7,1.1l-12.5-.5c1.8-3.9,4.2.5,8.7-1-2-1.7-3.2-1.7-5.4-2.8l4.7-19.5c2.8-7.6,8.3-14,13.3-20.3s4.8-3.1,5.8-5.6l-1.1-1.3,1.2-5-4.3-1.2c1.2-1.9,4.7-2.1,6.8-1.9,1.2,1.1,1.4,2.9.8,5.5l3.5-1.8c.2-2.1,2.9-4.1,4.7-2.6.9-1,2.2-1.3,4-1,2-1.2,4.2-1.5,6.8-.9-1.7-3.4,2.8-5.9,4.8-4h1.4c2.8-1.1,7.7-1,10.7,0s2.7.7,5.1.3c10.7-1.9,28.8,7.1,37.2,15.3Z" fill="#c1c2bb"/>
  <path d="M52.6,104.8v2.8s-.6,7.7-.6,7.7c-.4,5-.6,9.8-.4,15.1l1.3,39c4.6,4.9,6.6,8,3.1,14.4l10.7-2.6c0,2.8-1.7,4.3-3.9,4.9-3.1.8-5.8.6-8.3-1.2,0,1.6-.8,2.5-1,3.1-2,3.9-10-1-6-3.9,1.3-1.1,1.1,2,1,1.9-.7-.9-.8-4.7-.3-6-.7-3.3-.5-6.8.5-10.6-2.8-.6-6.2-1.5-6.7-4.9-1.9.9-2.1-.5-1.5-2.1-.9-1.3-2.5-1.6-4.6-1.2-.6-2.8,5.2-1.4,5.6-3.6s-.5-2.1-1.3-2.1c-1.2,0-3.3,2.6-3.7,1.3-1.4-4.7,0-9.2,1.2-13.8h1.7c.2,1.7,3.3,8.5,4.1,9.1s4.9,1.9,5.2,1.8c.4-.2-.2-5.5-1.1-6.3,3.3-5-5.7-8.5-2.7-11.4s.9-3.2,1.4-4.2c-.5-1.3-1.6-2.3-3.1-3,0-3.6.8-6.9,2.1-10-2.9.5-5,0-6.2-1.6,3.8-2.1,9.7,1.1,12.3-1.7-2-.5-3.9.1-4.8-1.3h4.4c.5-1.8-.3-3.2-1.9-4.1-.4-2.1.4-3.9.5-5.7,1.1-1.5,1.9-1.1,2.9.2Z" fill="#d5d3c6"/>
  <path d="M161.5,58.6c.7,1.3.5,3.1,2.2,4.5s1.5.2,1.6-.3l1.2.2c2.6,3.8,4.1,8.3,4.5,13.6,3,.4,3.4,10.6,3,11.5s0-2.4.6-2.6c2,1.2,2.5-3.5,5.9-3.3l-3.8,5.4c2.4,2.3.9,4.8-.9,6.7-1.8-1-2-.8-.5.8-.5.4-1.5.6-1.8,1.6,4.2,1,7.5.7,11.1.8l-.4.7-10.4.5-.8,1.5c-1.3-.3-2.6,0-3.7.8-1.2,1.5-2.8,2.8-4.6,3.9-5.8-4.1-10-11.8-6.1-12.5,3.4-.6,5.1,1.8,7.8,1.2l-1.7-9.7.6-2.5-1.9-1.5c-1.2-5.2-2.2-10-4.8-14.7.8-2.1,2.3-3.1,2.6-6-2.6,1.4-4.8,2.1-6.3.6,1.6,0,3.9.1,5.1-1.2-.6-1-.8-3.1.2-3.3,1.3.5,1.7,2.2,1.3,3.5Z" fill="#c2c5ba"/>
  <path d="M102.3,8.7c-.4,2.1-.6,4.1.2,6.6-.9,2.1-2.9,3.4-6,4.1,1.5,2.5,1.4,4.1-.5,4.9-2.3.2-4,1-5.1,2.3,2.8,4.6-7.6,10.8-7.5,3.8-.4-1.5.3-3.2,2.2-5-1.4.3-2.5.1-3.5-.5-1.1-.7-2.3-.6-3.6-2.2l3.8-1.2c-2.6-2.1-2.9-5.1-1.2-6.9,1.5,2.1,3.3,3.4,5.4,3.8-.6-1.8-.7-3.4-.2-4.6.7.2,8-2.5,6.8-6.1,1.4-2,2.9-.9,4.6-2,1.7-1.1,3.7,1.5,4.4,3Z" fill="#b1bca4"/>
  <path d="M144.1,79.8c-.3,2.5-1.8,5-4.3,6.2,2.1-4.6,4.1-8.6,4.9-13.6s-1.7-1-2-.6-1.1,1.5-2.3,1.9c-2.4-3-2.7-8.2,0-11.6-4.6-1.1-9.6,2.1-10.9.2s-.1-2,1-2.3c4.3-1.2,10.5,2.3,9.5-.6s-4.8-1.5-6.5-4.5c2.5-1.2,5.1,2.2,6.1.1s-1.6-1.9-2.6-4.2-.2-2.5.9-2.9c1.6-.5,3.2.1,3.8,1.3s0,2.9-1.2,4.3l6.6,3.1c-1.8,2.1-4.1,1.7-5.7,2.8-.1.6-.8,1.2-.6,1.5.2.4,1.5.5,2.8.3,0,1.3-1.6,1.6-2.4,3.5,3.6.5,4.8-5,8.5-4.9l-1.9,2.2c-.8.9,0,2.5.9,3.2.6-1.3.8-2.1,1.9-2.7-.3,2.6-.8,4-.2,6.3-.8-.4-1.3-.6-1.8-.6-.8,0-3.9,6.5-4.5,11.7Z" fill="#c9c7b8"/>
  <path d="M38.5,59.6c0,.6-.2,1.5-.4,2.2s.5,1.3,1.3,1.6l-.4.9c-3.9.6-4.6,5.7-1.7,7.9l.4,1.7c.6,2.7,4.1,2.8,3.9,4.9s-3.1,4.2-6.2,3.6c.2-3.7-.7-6.5-2.9-8.5-.8,1-1.6,1.3-2.3,1-2,.7-4,1.5-5.9,2.6l-1.6-1.1c-.7-1.4-1.5-2.9-1.5-4.3-.2-4,7.4-4.3,4.3-11.6l4.9-1.4,4.7,1.2c1.2-1.3,2.4-1.5,3.5-.6Z" fill="#b0bba5"/>
  <path d="M111.4,8.2c3.7,0,6.6,2,6.9,6.2,2.6.6,4.9.8,7.4.2-1-2.7-2.9-3.9-5-6.2,2-1.3,4.2-.3,5.3,1.4l3.6,6c-2,2.1-4.6.8-6.7,1.2-2,.7-3.3,2.8-4.6,3.8-2.2,1.4-3.2.1-3.1-2.4-1.4,3.8-11.2,1.7-12.3-.2-2-3.2,2.1-4.6,4.9-4.6.6-1.6-.6-2.7-3.7-3.3l-.3-1.8c-.6-.3-.6-.5,0-.7h.7c2.4-2.5,5.9-4.6,6.9.3Z" fill="#afb8a0"/>
  <path d="M30.1,74.9l.9.7v5.2c.3.4.4,1.1.6,1.6,2.4,4.2-3.2,3.2-5.3.8-.2,2.8-.3,5.6-.5,8.3-2.8,1-4.8,2.9-6.1,5.6-6.9,2.7-4.9-3.1-1-6.1,1-1.2,3.7-5.1,1.3-5-.7.2-1.5.3-2,.7-2.4.4-4.7-1.3-3.5-3.9,2.1-2.8,4.6-5.5,8.1-6.4s4.9-2.3,7.5-3.9c.2,1.1,0,1.7,0,2.4Z" fill="#8b9b7a"/>
  <path d="M96.3,25c.4.3,1.2,1.1,2.3,1,6.7-.7,13-.5,19.7.1l3.2-.8c.8,6.4-10.3-1-23.6,3.5l-1.2.7c-.7.4-.4.8.1.8h1.4c0,.1-5.6,2-5.6,2,1.1,1.3,1.1,3.3-.1,3.8s-2.9-.1-4.3-.6c-2.2,2.1-4.8,1.7-7,1-3.1-.7-.8-10,2.4-6.2.7.5,2,1.9,3,1.7,2.4-1.1,3.7-3.5,4.5-5.6-.6-2.5,4-2.2,5.3-1.5Z" fill="#e3e2dd"/>
  <path d="M141.3,33.6c1.2-2.9,7.2-1.2,9.3.4.7-1.1,1.5-.8,2.5.9,1.9.5,2.6,1.2,1.9,2.2,1-.6,2.2,0,3.5,1.5.7-.5,1.9-.5,2.6-.7,3.5-1.6,7.8,5.2,4,6.4s-5-1.1-5.6-1.3c-1.8-1.1-2.3-3-4.6-2.7s-2.9,1-2.5,2.5,2.5,1.7,4,2.4c-1,1.7-4.2,2-5.2,1,.7,0,1.1-.7.3-1-1.7-1.8-2.6-4.6-4.8-5.7l-18.5-9.5c.2-.5,0-1,0-.9l13.2,4.4Z" fill="#e2e3dc"/>
  <path d="M140.2,20.5c-1.2-1.9,1.2-2.7,2.9-2.6.5-5.3-2-16.1,2.1-13.8,4.1,2.3,2.6,8.4.6,11.6s.1,5.7.2,8.4l-1.4,1.6c-.2.3.7,1.1,1.3,1.5-2.6,2.1-6.4,2.2-9,0,.3-2.6,1.8-4.4,3.3-6.7Z" fill="#939c87"/>
  <path d="M169.8,33.2c.2,2.8,2.7,3.4,4.6,6.1,3,5.1-1,6.2-5.3,5.5l-4.1-1.1c.2,1.8,1.4,2.9,2.7,3.8.5.9-.3,1.8-.9,1.3-.4-1-1.2-1.2-1.7-1.1s-.7,1-.6,1.5c-1.1,0-1.7-.9-1.8-2.8-2.7,0-3.8-.9-3.4-2.6v-.7c1.6-.7,3.4-.6,5.1.3l.6-2.8c-1.9-.3-3.1-1.3-4.1-2.6,0-.5-.1-1.9.2-2.5s1.8-.6,2.5.9c1.9-1,4.8-1.8,6.1-3.2Z" fill="#b9bfab"/>
  <path d="M103.8,8.7l4.8,2c1.1.4,1,4.3,0,4.5-2.6.2-5,.3-5.4,3l8.1,1.5c2.4-1.9,4.8-4.3,7.7-3.3-1.1.9-2,1.6-2.3,2.5s.6,1.8,1.6,2.1c-1.6,1.4-3.1,2.6-5.1,2.8s-3.6-1.4-5.5-2.3c-2.3-1.1-4.2-1.5-6.3-4.4-1,3.9-2.1,6.9-5.1,8.1l-5.3,1.5c0-1.2-.6-2.2,0-3.9,1.4,1.5,4.8,1.7,5.5.1-.3-1.2-2.6-4.1-.3-4.9l5.2-1.7c-.6-2.3-.9-4.1-.8-6.4.5-.5,1.3-.7,1.9-1.1,0-2.1.8-2,1.5,0Z" fill="#cbd2bd"/>
  <path d="M42.9,35.8c2.3,1.2,4.7,1.6,7.8,2l-6.2,7.7c-1.4-1.4-2.8-1.8-4.4-1.7.6-1.3,0-2-.6-2.3s-2.3-.7-3.5-.6c.2-1.5,1.5-1.4,2.5-1.7-.8-1.2-1.1-2.2-.7-2.9.9-1.8,4.3,2.3,5-.3Z" fill="#cfd4c4"/>
  <path d="M28.9,116.5c-.2,1.9-1.6,2.4-3.1,3.3l-5.2-2.4c-1.2,2.6-1.4,4.9-1.6,7.6-2.9-.6-5.3-.6-7.8-1.8,2.1-1.9,4.6-1.2,6.9-.9.4-1.8-.5-4,.1-5.3,1.1-1.6,2.3-2.9,2.1-4.7,1.6.5,3.1-.3,4.8-.5,2.9-.4,1.2,5.9,3.8,4.6Z" fill="#d5d9c9"/>
  <path d="M153.4,21.5c0,2-.7,4,.2,6-1.6,1-4.3-.4-3.7-2.5-1.7-1.6-3.3-5.3-2.8-7.8s2.9-4.2,4.7-5.7c1.7,2,1.9,4.5,1.2,6.9s.4,2.3.4,3Z" fill="#bac0a8"/>
  <path d="M191.8,85.1c-3.2,2.2,1.5,4.8.5,10.2-8.7,1-13.8-1.6-11.2-1.6h1.7c1.2,0,2.2-.2,2.5-1.3s-.6-1.4-.8-1.9c.4-.9,1.9-1.5,3.1-1.2l1.2-4.9c1.1.5,2,.7,2.9.6Z" fill="#d4d5ce"/>
  <path d="M19.7,97.1c-.2.9-1.8,1-3.2,1,.9,1,2.4.9,2.4,2.9l-4.1-1.2c-1.4-.4-5.1,0-5.4-2s3.6-2.5,5.1-1.9c1-.8.1-2,.4-2.6,2.3-2.3,5.1-4.4,5.2-7.3s1.4-1.9,2.9-2.2c-1.3,8.3-6.1,10-6.3,10.8s-.4,2,.6,2.6,1.9,0,2.5-.1Z" fill="#cacfbb"/>
  <path d="M153.5,27.5l.7,1.2c.5,2.6,1.3,2.7,3.8,2.2.1.2,0,.7,0,.9l.2,2.7c1.5,2.3-.8,3.9-3.3,2.7l-4.4-3.1c-2.7-.6-4.8-1.7-3-4.4-.9-1.9.4-3.5,2.3-4.6.9.8,2.8.9,3.7,2.5Z" fill="#717e76"/>
  <path d="M148,103.3c-3.3-.7-2.1-5.4-4.2-8.8-1.8,1.6-1.3,3.6-2.3,5-.4,0-.7-.3-.8-.5l2.7-10.3c-.1,8.6,5.7,6,8.6,10.7-2.5,1.6-4.2-.4-5.9-2.3l1.9,6.2Z" fill="#cccfbe"/>
  <path d="M38.5,59.6l-4.1,2.9c-.4.7.1,2.6-1.3,3.5-1.7-1.2-.6-3.3.8-4.3-1.4-2.2-2.6,1.4-5.3.8,1.2-1.1,1.6-2.2,1.6-3.5l.8-.8,3.9-1.1c1.1-2,2.5-3.2,4.3-3.4.2,0,.5,0,.8,0,2.3,1,.2,5-1.6,5.9Z" fill="#8c9783"/>
  <path d="M143.1,17.9c-.2,1.9-2.4,1.8-2.9,2.6-1.1-2.4-4.3-2.7-6.7-3.3-.8-.6-.3-3,.5-3.8s2.1-1,4.1-1c0,3,2.3,4.2,5,5.4Z" fill="#bbbfaf"/>
  <path d="M193.9,58.9c1.7,1.5,2.3,3.8.7,5.9s-1,.8-1.6.8-.8-.3-1.2-.7c-3.6.1-4.8-.6-3.6-2.3l2.9-3c.2-.5-.5-1.2-.8-1.5s-.6-1-.8-1.4c.3-.2.5-.5.7-.8,1.9-1.2,4.6,1,3.6,3Z" fill="#acb397"/>
  <path d="M21.5,168c-.6,0-1.4-.3-1.5-.8-1.2-3.8,1.1-6.7,5.4-8.6,1.3,1.3,1.2,5.1-.7,6.8l-2.5.7c-.5.1-.7,1.2-.6,1.9Z" fill="#a6b39b"/>
  <path d="M111.4,8.2c-.2-.8-.9-1.4-1.4-1.6-2.1-.5-3.8,2.8-5.5,1.3,2.2-1.2-1.8-3.3-.9-5.3s1.6-1.8,2.9-1.3c2.9,1,4.9,3.8,4.8,6.8Z" fill="#cbd2bd"/>
  <path d="M82.9,8.7c-1.2-.2-2.2-.8-3-1.7-.3-1.3-.4-3.2,0-4.6s2.5-3.1,3.7-2.3c2.7,2,1.1,6.5-.6,8.5Z" fill="#909a8e"/>
  <path d="M88,61c-5.3-.5-6.5-8.3-6.5-8.5.2-.6,1.2,0,1.5.1,3.9,1.2,6.1,3.6,4.9,8.3Z" fill="#b0b3a8"/>
  <path d="M128.9,25.5l-2-.9c-.3-.2-1.1.5-1.8.9-.9-1.9-.5-5.1,1.6-6.2,1.9-.9,3.5.5,4,2s.5,3.7-1.8,4.2Z" fill="#dad4b9"/>
  <path d="M103.9,7.9v.7c-.4-.2-1.2,0-1.5,0-2.1.2-3.2-1.5-4.4-3s-1.1-1.7-1-2.7.8-2,2-1.9,2.1.6,2.6,1.7l2.3,5.2Z" fill="#939c83"/>
  <path d="M78.9,52c0,4.1-1.9,7.2-5,9.6-2.2-4.6,1-8.5,5-9.6Z" fill="#b3b6a9"/>
  <path d="M150.6,34.1l-9.3-.4c-.5-.5-.4-1.4-.2-1.9,1.2-2,4.3-.8,6.5-2.1.7,1.5,1.6,3.4,3,4.4Z" fill="#aab0a5"/>
  <path d="M193.9,58.9l-3.6-3v-.4s-.4-.3-.4-.3c-1.5-5.4-4.8-5.8-4.9-7.3s.1-3,1.7-3.5c3.1-1,2.1,5.3,3.8,10.3l.2.5c3.8-.3,4.6-5.6,6.8-1.4s1.3,2.6-.3,3.2-3.4,0-3.3,1.9Z" fill="#d5d8d0"/>
  <path d="M12.6,108.5c-1.1,1.5-4.7,1.2-5.2-.2s1.6-4.6,3.4-4.6,3,3.3,1.8,4.8Z" fill="#babfa6"/>
  <path d="M154.4,79.1c-.9,1.9-3.2.4-4-.4s-1.6-4.3.2-4.8,4.5,3.5,3.8,5.2Z" fill="#c0c4b5"/>
  <path d="M193.1,37.1c-.2,1.4-3.8.7-4.7-.4l.6-3.9c1.8.2,4.5,1.2,4.1,4.3Z" fill="#c2c8c3"/>
  <path d="M175.8,94.2c-.1.2-.2.6-.5.8-1.4.2-2.8-.4-3.5-1.5s-.3-3.6.7-4.2c2,.5,3.3,3,3.3,4.9Z" fill="#8c9789"/>
  <path d="M39.3,53.7c-1,3.4-4.8,5-8.2,4.5l3.8-1.8c.3-1-.6-3.1.5-4.4,1.2,1.2,2.6,1.9,3.9,1.7Z" fill="#c0c7ba"/>
  <path d="M198.7,45.5c1.5.6,1.5,1.7,1.3,2.5s-.8,1.4-2.2,1.2-3.6-1-3.5-2.1c.2-2,2.8-2.2,4.5-1.6Z" fill="#b8c1be"/>
  <path d="M33.7,50.3c-1,.4-1.9-1.5-1.9-2.4s.1-3.7,2.3-3.2,2.1,4.4-.3,5.6Z" fill="#c2c8bd"/>
  <path d="M139,93.1c-.5.8-1.8,0-2.1-.6-.8-2.2.6-4.4,2.8-6.5.4,2.5.7,4.8-.8,7.1Z" fill="#aeb4a0"/>
  <path d="M140.7,75.1c-1.2,2.6-4.9,3.4-7.9,2,2-2.2,4.4-2.7,7.9-2Z" fill="#aeb2a2"/>
  <path d="M148.5,85c3.2,2.5,5,7.2,3,7.7s-1.5-.6-1.7-1.6l-1.3-6.1Z" fill="#c6c6ba"/>
  <path d="M29.4,34.5c-.3,2.3-3,2.8-4.1,5.8-.7-2.9.2-6,2.6-7.2s1.6.7,1.5,1.4Z" fill="#c1c5bf"/>
  <path d="M12.7,90.2c-1.4-.1-3.7-3.7-2.5-4.8,2-1.2,3.9,3.1,2.5,4.8Z" fill="#c3c6ac"/>
  <path d="M48.3,30.7c-1.4.7-3.4,1.9-5.5,1.3-.6-1,.8-2.3,1.4-2.4,1-.2,2.7-.8,4,1.2Z" fill="#9aa28c"/>
  <path d="M191.8,64.8c-1.1.7-2.7,1.3-4,.4s-.8-1.4-.5-2,.7-.5.9-.6c0,.4-.2.8,0,1.7.6-.6,1.4-.9,2.2-.8s1.2.7,1.3,1.4Z" fill="#d3d8c7"/>
  <path d="M18.1,86.7c-1.1.9-2.9.7-3.6-.3-1-1.5-.7-2.5,0-3.6,0,.6-.2,2,.6,2.4l2.9,1.5Z" fill="#cacfbb"/>
  <path d="M52,115.3c.2-2.5-.7-5.3.6-7.7-.1,2.5.7,5.4-.6,7.7Z" fill="#efeee9"/>
  <path d="M83.5,30.3c-.6.2-2,.2-2.1,1.6l-.3,4.6c-1.3.6-3,2.3-4.7,2.6-1.5.2-2.6-.5-3.3-2.3.2-1.4-.2-1.9-.9-1.4-1.8,2.1-4.4,2-6.8,1.9-1.2-.3-1.8-1.6-1.7-2.8.1-2.6,6.6-5.6,7.6-4.9,2.2,1.6,2.9,1.4,5.2.6s4.8-2.5,5.7-5.3c.3-.9,1.8-.9,2.6-1s2.8.4,2.3,2-2.7,3.3-3.6,4.5Z" fill="#949a8c"/>
  <path d="M86.6,13.8c.8,1.2,2.5,3.5,1.4,5.3s-3.8.3-4.8-.6-2.3-1.9-1.8-4c1.5-1.6,3.4-1.4,5.2-.8Z" fill="#808b78"/>
  <path d="M82.9,8.7l.2.9c0,.3.7.7,1.1.4,3.6-2.4,7.8-.4,9.2-2.4,4.8,1.6-4.2,9.6-6.8,6.1-.8,1.6-3.7,1.3-5.2.8-1.2,2.3.2,4.4,2,5.9v1.1c-1,.9-1.4,2.1-1.1,3.3,2.9,3.6-4.8,7.2-8.1,7.4-3.6-2.3-10-.3-8.7,5,2.1,0,3.5.4,4.3,1.2-1.1,1.8-3.8,3-5.8,3.8-.4,1.9-.4,3.2.2,3.9.4-1.8,4.4-3.1,5.5-1.4.3.7.9,1.7.5,2.1-13.7,10.8-20.2,26.1-22.2,42.6l3.3,1.7c1.1,2.4,3.2,3.7,5.5,2.4.6-1.2,1.8-1.5,3-1.6,3,3.8-1.9,6.9-5.9,6.5,3.2,1.7,2.7,3.4-1.5,5.1-2.4-.5-3.2-.2-2.6,1.1l1.4,1.2c-.2,3.1,0,6.3.4,9.7-1.5-.4-3.1-.7-4.7-1,0,.4-.2.7-.3,1-.4.6-16.8,1.4-9.2-3.5-2-.5-2.3-1.8-1.9-3.8-2.9-1.6-5.5-3.7-6.9-6.9s1-3.4,2.1-3.4c3.1,1.1,6,1.1,3-2.4v-2.3c-1.4-2.4-.4-4,3.1-4.9-2.3-.2-3.5-.9-3.6-2.3-1.4-.7-1.9-1.9-1.3-3.6-2,0-2.1-.2-.7-1.6-.5-1.4,0-6.6,1.4-6.9s3.3,6.9,3,8.6l1.4-1.4c4.3-.5,4.3-2.4,0-5.4l.9-1.7.3-1c4-1.3,5.2-4.8,2-7.7l-.5-1.8c-3,0-3.3-1.3-.9-3.7.6-2.5,1.5-2.1,3.3-.8.1-1.7,1.5-2.2,4.1-1.7.6-3,1.7-4.2,3.2-3.6-.1-2-.1-4,0-6-1.8-2.1,1.3-5.1,3.8-4.7,0-2.1.9-3.6,2.2-5.1-.2-1.4-.8-2-1.8-1.5-1.8-.4-2.2-1.6-1.2-3.7l-.2-6c0-1,.6-1.3,1-1.6,1.1-.1,1.7.5,1.8,1.8l6.4-2.8c1,.2,2,.3,3.1.4-1.2-4.7,3.3-5.8,7.4-5.6,1.1-1.4,2.2-2.3,3.3-2.7.3-.8,1.9-1.4,1.3-3.1,2.7.3,3.4-.9,2.1-3.5l.9-1.4c.4-.2.8-.7.8-.9,1.8-.8,2.7-.3,3,1.7Z" fill="#efeee9"/>
  <path d="M54.9,37.7c-1.1,2.6-2.9,4.7-5.4,6.4l-7.4,9.5h-2.1c-.3.7-.6.6-.8,0,.4-1.1,1.4-2.1,1.3-3.4s-2.2-1.7-2.7-2.6c-.9-1.7,1-3.5,2.3-3.9l1.4-1.4c2.5,1.4,4.5.2,5.9-3.4-3.1-.1-4.6-1.2-4.6-3.1-.6-1.5.7-2.4,1.7-2.8,3.9-1.5,6.5,4.6,7.3-.4,0,.6.8,2.1,1.5,2.3,2.7,0,3.8-3.2,5.4-4.3l8.2-5.4c.5-.3,1.4.1,1.5.4.1.5-.1,1.4-.8,1.8l-7.5,5.5c2.6,3,2.6,6.6,1.1,7.5s-1.2-3.3-3.8-3.8-1.8.7-2.7,1.2Z" fill="#9aa28c"/>
  <path d="M52.6,104.8c-.1.8-2.3.4-2.9-.2-1.7-1.6-5.9.3-8.7-1.3s-.6-2,0-2l11.8.7c.8,0,1.3-.3,1.5-.7s0-1.2-.6-1.4l-9-2.1,12.5-1.4c1.9-.2,2.5-3.1,2.4-4.6,1.2,0,1.8.6,1.9,1.4s.4,2.5,0,2.9c-2.2,1.7-2.6,4.2-4.5,6.2s-4,.2-4.4,2.5Z" fill="#c1c2bb"/>
  <path d="M74.9,16c-.5,1.3-.6,2.7-1.8,3.5-3,2.2-6.7-.9-7.7,2.5s-.7,1.7-1.3,2.3c-5.7,1.1-3.5-3.2-.3-5.6l.9-2c-.1-1,.1-3.3,1.5-3.6,3.3-.6,5.9,1.5,8.6,2.9Z" fill="#a3aea1"/>
  <path d="M64.1,24.4c-.8.9-2.7.8-3.9,1.5-2.3,1.3-4.3,2.3-7.2,2.8l-.2-3.7c2.1-1.8,4.5-4,7.3-5.3s3.9-.9,4.7-2.9c.7,5-3.2,4.4-2.7,6.1s1,1.6,2,1.5Z" fill="#c5ccc0"/>
  <path d="M79.1,8c1.4,2,1.5,4.3.7,6.7-1.4-.3-2.8-.8-3.7-1.7-2.1-2.1-3.2-5.5-1.1-7.7,1.8.8,3.3,1.7,4.1,2.8Z" fill="#c1c5b0"/>
  <path d="M48.9,47.6c.6.9.4,1.9-.4,3l.4,3c-1.8,1.2-.4,4.2-2.9,5.1s-1.8,0-3.2-.6l2.5,5.7c-4-1-4.5-5.9-7-4.1-.3-2.2,1.3-3.8,1.6-5.9,5-5.3,7.9-11.4,14.8-16-.9,4.5-.5,9.6-2.4,8.3s-.6-1.3-.7-2.1c-1.7.6-1.9,2.7-2.8,3.7Z" fill="#c3cab6"/>
  <path d="M64.1,46.2c-4.4,5.5-10.3,10.3-13.6,17-5.1,10.4-6,25.6-8.6,26s.9-5.4.9-7.1c.2-5.2,2.2-9.6,3.8-14.3,1.5-4.5,3.3-8.2,6.6-11.6l9.7-9.9,1-4.1c2.2.1,2.3,3.4.2,3.9Z" fill="#d0cfc7"/>
  <path d="M39.4,63.4c2.5.7,3.8,3.2,3.8,5.7s-2.4,4.8-5.5,4.9c-2.1-.4-3.7-2.4-3.6-5.3s.2-3.2,1.3-4.2,2.5-1.5,4-1.1Z" fill="#919e98"/>
  <path d="M69.7,38.5c2.2.6.6,4.4-.1,6.3-1.8.8-3.6,1.6-5.5,1.4l-.2-3.9c.6-2.6,3-3.6,5.8-3.8Z" fill="#9a9f94"/>
  <path d="M35.4,82.4l-.9-3.7-1.7-4.2-1.8,6.3c-1.4-1.6-1-3.9-.8-5.9,1.4-1.3.8-2.9,2.7-5.3.6,5,3.9,6.2,2.5,12.8Z" fill="#cfd5c6"/>
  <path d="M49,53.6c-1.7.1-1.9-1.3-1.9-2.6s.9-2.3,1.8-3.3c1.2.8,1.7,2.1,1.7,3.4s-.7,2-1.6,2.6Z" fill="#8a9786"/>
  <path d="M57.7,37.8c.3,3.5,3.7,6.2,2.2,6.8s-1.1,0-1.2-.3l-.5-1.4c-.6-1.6-2.4-3.4-.5-5.1Z" fill="#c3cab6"/>
  <path d="M76.4,39.1c.9,1.5-2.7,3.3-4.6,3.8-.9-2.2-.2-4.7.3-7.5s0-2.3,1.6-3c-.4,3.1,1.3,4.5,2.6,6.7Z" fill="#e7e6e4"/>
  <path d="M46.8,114.5l4.8.2c.8,2.7-1.6,5.2-3.2,2.6-3-.3-6.1-.2-9,.2,0,.3-.2.6-.3.6-3.5,0-.9-1.4,2.1.5s3.4,5.7,2.1,7.1-7.3,1.9-8.2,0c0-4.7-.6-5.5-1.6-2.3-5,0-7.1,10.2-.7,9.7,3.8-3.2,7.7-4.5,11.6-3.9,1.1.8,1.8,1.8,2.1,2.8,2.5,1.1.8,4-.5,5.6,2.8,3,4,6.1,3.8,9.3l-2,.7c-3,4.1-8.2.1-8.3-4.6-.5-1.3-1-1.3-1.5,0,.2,3.9.2,7.8-.1,11.8,4.9-2.5,7.8,3.2,2.9,5.4v2.2c.6,2.1.3,5.7-2.3,4.7s-11-9.4-11.5-12.1.2-1.6.5-2.3l-.4-4.8c-1.9,1.3-3.1,2.2-4.9,2.3s-4.6-.7-4.6-2.7c.1-3.6,6.1-3,9.3-4.7.8-2.8.6-5.1.4-8.5-1,.4-2.7,1.4-3.6.7-2.4-1.7-4.1-6.1-2.7-8.7,1.1-1.1,4.1-.2,5.2.4l1.1-4.7c-1.8-.2-2.8.4-4.6.7,1-1.4,2-2.3,3.1-3-.5-1.9,1.4-3.1,3.1-3.3-.7-1-.8-2.5-.3-4.5-2.9-2.9-3.2-4.8-2.2-8.6-1.8-.2-3-.9-3.6-2-.3-1.2-.9-2.4-1.5-3.2-2.3-3.5,4.9-7.8,6.8-3.7,1.6-2.4,2.7-5,3.3-7.8l1.7-.5c1.3.4,4.3.2,5.2,1.9s-2.5,3-4.4,2.6c1.4,1.8,1.5,2.8,1,4.8,1.1,2.1,4.8,1,5.7,2.5s1.4,1.3,0,2.2c-.7-1.5-1.5-2.5-2.5-2.6s-1.9,1.4-2.6,2.1c-1.5,1.5-3.9,0-6-.2,1,6.5,9.6,8.1,8.1,9.4l-1.5,1.3c2.3.9,4.3,1.3,4.7,3.8-1.8,0-3.5-.6-4.8.7h10.8Z" fill="#a5ae99"/>
  <path d="M31.7,82.4c1.4.2,1.7,2.2,1.3,3.6l-1.3,5c-2.3,3-3.2,4.9-2.7,9.1-1.8-2.6-1.3-4.7-3.8-6.6-2,2.6-4.8,2.1-4,4.5-.3-.3-1-.8-1.5-.9.2-1.3,0-2.8.7-4s2.4-1.9,4.4-2.3c-.3-3.7-.6-6.9.7-10.5,2.6,2.9,5.3,4.4,6.2,3.1s0-.7,0-1Z" fill="#cfd5c6"/>
  <path d="M28.9,116.5c-2.3,3.1-3.2-.8-3.6-3.2-2.7,1.2-4.4.9-4.9-.9l-1.1-9.3c1.5-.8,2.4-1.6,3.5-1.8s5.2.3,5,2.1l-.5,4.9c1.6,1.3,2.9,2.4,3,4.3s-1.2,2.6-1.3,3.9Z" fill="#83937b"/>
  <path d="M39.2,117.5h9.1c-1.5,3.6-4,7.1-3.6,11.2.3.9,2.5,1.9,1.7,3.4-3.7-3.7-7.1-1.5-11.9,1.9-1.9,1.4-5.7.9-6.4-1.5l-1.5-4.9c2.7-1.2,2.2-5.9,3.9-5.3l2,.6c.2-1.1,0-3.1.8-3.7,2.8.6,3.5,3.5,2.8,6.7,2.1-.7,3.6-.9,5.7-.3,1-4-1.6-6.8-5.4-7.7,1-1.6,2.1-.4,2.8-.4Z" fill="#edece6"/>
  <path d="M47.8,147.7c1.7,0,2.6,1.4,2.6,2.8v7c-2.9-3.5-7.4-3.1-8.1-4.6l-4.4-9.7c-.6-1.4-2.1-3-1.2-5.1,2,1.8,2.9,3.5,4.7,4.9-.4.8-.8,2.3-.4,2.8,1.5,2.4,4.4,2.1,6.7,2Z" fill="#f1f0e9"/>
  <path d="M34.7,150.1c-.7.8-2.9-1.7-2.5-2.9s2-3.3,3.3-3.1c.4,2,.8,4.4-.8,6Z" fill="#d5d3c6"/>
  <path d="M30.2,150.4c-1.2-2.4-.8-4.3-.4-6.7,1.2,1.9,2.2,4.2.4,6.7Z" fill="#d5d3c6"/>
  <path d="M169.2,44.8l1.8-.4c3.6,3.1,7,6.5,10.4,10.1l2.2-.3c.2.3.5.6.7.9,0,2.2.2,2.8,1.1,4.5s-2.7,2.8-4,2.2c.4,1.2,1.6,1.9,3.5,2,1.5,2.6,1.5,4.7,0,6.3-.4,2.5-1.2,4.4-2.4,5.6l.4,1.2c1.9,2.4,2.8,2.4,2.7-.1.4-2.2,1.2-4.2,2.3-6-.1-1.1.3-1.2,1.2-.1,2.5,2.3,7.1,5,5,9.4s-3.2,2.8-2.4,4.8c-.8,1.1-1.6,1.6-2.2,1.5.4,3.5-1.9,5.2-5,4-3.3-4.3-1.3-8.3-4.1-8.5-1.8,1.3-3.4,3-4.7,4.9l-1.2-1.6c-1.1-.5-1.4-2.1-1-4.8-2.4-3.7-3.7-6.5-4.3-11.2,2.7-1.3,3.2-1.8,1.4-1.3-1.6-1.6-3-3.3-4.2-5.1h-1.2c.5.5.7,1.4.2,1.6-3.6,1.6-4.6-3.1-3.9-5.9,0-1.6-.4-2.7-1.3-3.5l-.4,1.3c2,3.4-1.9,4.2-4.9,3.3h-.6c-.8-.5-1.6-1.3-1.7-2-.3-2.1,2-5.5,3.9-5.5,1.1-3.3,5.7-9,7.2-2.8h.9c0-.1.5-3.5.5-3.5-2.8-3.8,3.6-4.7,4.2-1.1Z" fill="#9fa98e"/>
  <path d="M183.5,54.3c-.6.7-1.1,1.8-2,2.3-4.9-3.3-9.7-11.1-12.4-11.8,1.4-1.2,3.2-1.5,5.1-1.8.4-1.4.2-2.6.1-3.7l2.9,3.9,6.2,11Z" fill="#d3d8c7"/>
  <path d="M189.6,56.7c.9-.3,1.6.7.8,1.4-.7-.1-1.7,0-2.2.9l-3.1,5.1c2.1,1.8,2.6,5,4,6.7h-1.2c-1.4,2.1-2.7,1.7-3-.7-1.2-1.1-.1-3.5-.3-4.8-1.5-.7-3.7-.3-4.4-2.1s-1.3-2.3-.8-3.8l2.9,1c2.6.9.6-3.4,1.8-5.3.7.9.8,2.2.8,4,2.1-.3,3.2-1.5,4.6-2.4Z" fill="#d3d8c7"/>
  <path d="M164.6,49.3c.1,2.1,2.5,3.9,1.7,5.5s-1.2.9-1.8.7c-1.9-.6-.2-4.9-3-7.7-2.3,1.6-2.2,4.5-5,4.5-.4-1.7-1.4-2.4-3.4-3.9h3.9c.3-2.1.9-3.8,2.4-4.4,1.4.9,3,1.2,4.9,1.1l.3,4.3Z" fill="#e2e3dc"/>
  <path d="M174.5,85.4c.4.8,1.2,1.8,1,2.5s-2.2,1.7-2.3,1.1l-.8-9.1c0-.8-.5-1.9-1.2-1.8l-1.7.2c0-5.7-1.2-10.9-4.3-15.4,0-.5.1-1.4.8-1.6l6.2,6.3v-7.5c3.7,2.1,3.9,6.2,2.2,9.6-1.5,0-2.7-.2-4,.3.7,4.4,2.2,7.9,5.1,10.8-1,1.5-1.6,3.2-1,4.7Z" fill="#e3e6dc"/>
  <path d="M176.4,76.1c-.6-3,.9-6,1.7-8.5-.3-.7-1.3-1.8-1.2-2.3s1.1-1.7,2.2-1.3c1.8.8,3.7,3.8,2.7,5.8s-3.4,4.2-5.4,6.3Z" fill="#d6dacd"/>
  <path d="M185,70.2c1,.3,1.9.8,3,.8.8,2.4.4,5.1-2.3,6l-.8.7c-1.1-.8-1.7-1-1.9-.6-1.6-1.1-1-2.9-.1-4.8l-.5-2.1c0-.3.6-.6,1.2-.4l1.4.5Z" fill="#727d6b"/>
  <path d="M185.7,76.9c1.6.8,3.3,1.9,2.8,3.9-2.3-1.3-4.1-.8-5.4.8-.6-1.9-.2-3.3,0-4.6-.3-.4,0-1.8.4-1.7,1.3.2,1.7,1.3,2.3,1.6Z" fill="#cad2c2"/>
  <path d="M161.5,58.6c-.5-1-1.8-1.9-1.3-3.5.3,0,1.1-.6,1.7-.2,1.1.8.5,2.8-.4,3.7Z" fill="#f3f3f2"/>
  <path d="M38.4,172.6c-.4,1-.7,1.8-.6,3.2s.1,2.3-.4,2.6-1.7,0-2.5-.6c-1.7,1.4-2.2,3.2-4.8,3.8l2.4-6.3c-1.3-.2-2.6-.6-3-1.3s-.4-2.4,0-3.1l3.3-6c1.5,1.6,3.3,2.2,5.3,3.4.8.7.6,3.3.2,4.2Z" fill="#a5ae99"/>
  <path d="M169.8,33.2c.6,2.9-5,4.8-7.3,3.8l-1.5.9c.3,2.1-1.5,2.3-2.6.7-2-.4-2-1.4,0-2.9l-.5-4c-.4-.3-.4-.6,0-.9-2.8,1.7-4.1,1-3.8-2.2-1.8.9-2.1.3-.7-1.2-1.9-2.1-3.1-4.4-.2-6,2.2.7,4.3.4,7-1.1.5,3.9,2.2,6.6,5.9,7.7.3-1.5.6-2.7,1.9-3.3,2.2-1.1,6.4,2.2,4.9,4.5s-2.8,2.1-3.3,4Z" fill="#dfe0d4"/>
  <path d="M158.5,38.7c-.6.5-1.6.8-2,.3l-1.5-1.8c.2-.6.8-1.2,1.4-1.1h1.5c0,.1.2-4.3.2-4.3,1.2.6.2,2.3.5,2.9.5.7,1.5-.8,1.4-1.1s.9.6.8.9c-.3,1.1-2.5,1.5-2.3,4.1Z" fill="#b9bfab"/>
  <path d="M158,30.9c-1.4.8-1.8,2.1-2.7,3.8s-3.2-.9-2.5-1.6c1.4-1.5,1.8-2.7,1.5-4.4l1.2,2.3c.9-.8,2.2-.8,2.5-.1Z" fill="#b9bfab"/>
  <path d="M167.2,31.6c-.4-.3-.9-.6-1-.9,0-1,.5-1.1,1.4-1.3,1.3-.3,1.6-.3,2.1.2,1.2,1,.8,1.3,0,2.3s-1.1.8-2.5-.2Z" fill="#b9bfab"/>
  <path d="M40.7,162.5l1.5,2.1c3.1,1.8-.7,10-3.8,8-1.1-.4-1.5-1.5-1.3-3.2l-3.5-1.9c-3.7,3.7-3.8,6.1-.2,7.2-.8,3.5,2.3,2.4,4.4,1.1,1.2-2.1,6.6,4.2,6.6,5.2.1,2.7-4.2,3.7-5.1.8-2.6-.9-2.6.7-.1,5l-.7,1.4c1.4,3-4.2,4.1-5,1-1,1.9-1.3,3.5-.9,4.9l.5,2.4c-1.7,2.5-1.4,3.9,1,4.2.3-1.9,3.1-1.9,4.2-.7.7-.8,1.6-1,2.6-.7.7.2.7.4,0,.8,1.8-1.1,1.6,5.8,1.3,6-1.4,1.3-2,1.1-3.6.2-2.6-2.6-6.4-.2-3.9,3.3l-1.3,2.2c.8,1.9,1.1,3.8-1.2,4.2-.3,0-.8-.2-1.3,0s-.6.3-.5.9c-1.9,1.2-5.3-4.5-3.6-6.1,1.6-1.5,0-4.3.2-6,.2-2.9,0-4.9,0-7.7v-24.7c-.8.5-1.6.6-2,.4-2-1.1.4-4.7-.4-6.7-1.2,1.1-2,2-3,1.9-2.2-1.9-.1-3.8,2.4-3.8.6-1.9,1.1-3.7,1.5-5.5-.3-.4-.4-1.6-1.1-2.1.5-1.5,2.3-2.5,3.2-3.8,2.6,5.5,6.7,9.6,12.2,14-.5-1.6,0-2.9,1.1-4.2Z" fill="#d3d3c5"/>
  <path d="M47.6,184.2c-.4,1.2-.1,2.2,1.1,2.9s3.2,1.4,4.9,1l-.2,21.1c0,1.5.8,2.5,1.7,3.6l-18.8.2c-.8,0-1.4,1.5-1.1,2,1,1.8,4.3-.6,4.7,1.7l-7.9-.6c.7-1.8.2-3.3-1-5.1,1-.4,2.1-1,2.2-1.5s-.7-1.9-2-2.8c1.7-1.9,4-2.9,6.5-3.3l3,2.9.2-6.2c.5-2.2,2.8-3.7,3.7-1.1.6-.2.8,0,.5.6,3.3-.2,2.5,3.2-.2,4.2,2.5,1,2.4,3-.1,5.9.3.2,3.4.7,3.8.5.6-.4,1-13.1.7-13.8l-1.4-1.5c-.4-1.5-1.6-2.5-3.4-2.8l.2-2.4c-1.2-2.7-.7-8,3.2-7.5.8.1.7,1.6,0,2.2Z" fill="#b4b3a2"/>
  <path d="M49.8,226.6c.8,4.1-7,1-3-1.6,3.8-.3,8.3.3,11.4-2.9.2-.7-1.5-2-2-1.8l-3,1.2c-3.1,1.3-6.5-.7-9.8-1.4,1.7-1.5,2.6-1.9,3.4-3.8,2.8,3,4.8,1.7,7.5.5s4.6-.7,5.6-4.1c.7,2.1.1,3.4-.4,5.5h3.1c-.6-3.7.7-6.9,3.4-7.1s2.4.7,2.5,1.6l-3.5,4.5c1.1.6,3.8.3,4.3-.6.4-3.5,1.5-6.3,4.7-8.2.6,2.4-.5,3.9-.7,6.5,3.1-2.7,4.8-5.5,9-6.3,0,1.5-1.1,2.2-2.3,3.4l6.4-.5c-2.5,4.4-9.3,2.4-12.7,4.8,2.1.3,6.5,1.1,6.5,3.5-5.1,3.9-8.8-4.9-14.5-.8l8,7c-3.7,3.3-8.3-.8-10.6-6.5-.4-.8-3-.8-3.8.3,1.6,2.3,2.8,4.1,2.9,6.9-1.2,0-1.2-1.1-1.5-1.3.8.5-8.7,0-10.6,1.3Z" fill="#bdbea7"/>
  <path d="M10.9,195.2c.2-.7,2.2-1.5,2-2.7-4.2.1-8,3.3-10.9.2s-1.9-2.3-1.4-4.1l13.1,2.3c-.6-2.7-5.2-1.5-5.1-3.9s1.6-.5,2.2-.4c1.5-3.5-8-3-10.3-10.7,6.9-.1,8.5,5.5,12.4,9.4.2-2.8.7-5,2.8-6.3.9,5.5-3,8,2.6,15.1-4-.3-6.5,3.9-7.5,1.1Z" fill="#c4c7b1"/>
  <path d="M34,225c-.4,1.6-2.1,2.3-5.1,2.2-1.2,1.4-3.4,2.7-3.7.4-1-.7-1.8-1.7-2.9-2s-2.1.8-2.8.9c-1.9,2.2-5.7.5-5.1-2.2,3.4-2.8,7.9-2.1,11.3-7.6,1.3-1.8,4.9,1.2,6.2,2.6s3.9,4.1,2,5.8Z" fill="#9ba78a"/>
  <path d="M46.8,225c-.2.9,0,1.9,1.2,2.2s1.2-.2,1.8-.6c.3.9,1,1.6.8,3.2l-28.8-.2c-.7,0-.7-2-.1-2.2,1.4.7,2.5.5,3.4.2.4.2,1.1.4,1.4,0,1.9-3.1,3.1-1.4,7.4-2.5.8-.4,1.5-.3,2.2,0-.1-1.4.4-2.2,1.6-2.4.2.7.9,1.5,1,2.9l8.1-.7Z" fill="#d0d3c6"/>
  <path d="M79.1,194.4c-.2,2.3-1.8,3.4-3.5,4.2-4.7,2.2-10.8-4.1-11.5-5.8s0-4.1,1.3-3.8c2.5.5,2.6,3.7,3.1,6.3,1.8-2.1,4-3.6,6.4-2.2l1,1.6c.2.4,1.5,0,3.2-.2Z" fill="#b0b9ab"/>
  <path d="M26.6,210.8l3.6,6.1c3.4.9,6.4,2.4,7.5,5.9v2.2c0,1.1-.9,1.7-1.8,1.8s-1.6-1.1-1.9-1.7c-1.5-3.8-4.6-6.8-8.2-8.4-1.3-.6-1.8-3.5-1.3-4.9s1.7-.9,2.2-1Z" fill="#7e8d66"/>
  <path d="M60.8,203.4c-5.1-.6-5.6-7.7-3.4-14,4.4,3,5,8.8,3.4,14Z" fill="#b0b99f"/>
  <path d="M82.7,182.9c-.9-1.4-2.1-2.2-3.7-2.4h-.6c-1-1.4-1.7-3.5.2-4.4l-1-7.7,2.3,2.1c.5.4,1.6-.8,2.2-1.4.6,2.8-.5,4.4-.9,6.9l2.1-.5c1.1-.3,3.1,3.5,2.2,4.9s-1.8,1.6-2.7,2.4Z" fill="#d8dcd7"/>
  <path d="M7.6,211.5c4.7,2.4.2,6.6-3.7,7.5-1.7-.9-1.3-3.6-3.9-6.8,1.7-1.1,2.6-2,3-4.2,2.8-.1,2.4,3.7,4.6,3.6Z" fill="#ccd1ca"/>
  <path d="M86.2,185.8c-4.2,4.7-9.3,7.1-10.5,4s-.3-4,1.9-4.5,5.6-.4,8.6.5Z" fill="#b9c1b7"/>
  <path d="M12.9,223.6c-2.6,1.9-6.7,1.9-9.7.1,1.1-3,7.7-1.7,5.3-4.9-1.8-1.7-.3-3,1.4-1.4,1,.1,2.1,0,2.8-.6,1.6-1.2.3-3.7,1.8-4.8,2.9,2.8,2.5,11.7-2.2,7.3.9,1.5,1.1,2.9.6,4.2Z" fill="#d3d6cf"/>
  <path d="M74.8,184.1c-.3-.3-1.1-.8-1.5-.6-1.6.8,1.2,3.4.8,4.7s-1.6,1.7-2.2,1.1c-2.4-2.5-3.7-5.7-3.3-9.2,4.3,2.2,7.9.3,8.3,3.4s-.8,1.8-2.1.7Z" fill="#97a495"/>
  <path d="M11,179.8l-3.2-5.9c4.6,3.7,1.5-3.1,3.5-7.2s2.6,1.7,3.4,7.5l-3.7,5.6Z" fill="#9da687"/>
  <path d="M9.9,217.5c-.6,0-1.5.8-1.4,1.4-1.6.6-3.2.9-4.6.2,0-.8.2-1.8.7-2l2.8-1.1c1.3-.5.3-3.3.3-4.4,1.4-.3,2.2-1.3,2.6-3.1,1.4,1.3,2.8,3.6,2.2,5.6l-2.5,3.4Z" fill="#869379"/>
  <path d="M64.1,163.5c.2,2.7-.8,5-2.8,6.7-2.5-4-4.1-7.8-2.7-12.5,2.6,1.8,3,4.3,3.2,7.2l2.3-1.4Z" fill="#bfc2ad"/>
  <path d="M21,197.1l-1.8-1.4c-.4-.3.7-1.2,1.4-1.6-.1-3.5.6-7,2.7-9.9,4.4,4.5-.8,7.9-2.3,12.9Z" fill="#c4c7b1"/>
  <path d="M71.5,206.7c-3.1,2.4-9.8-1.4-8.9-3.8s5.3-.9,8.9,3.8Z" fill="#bfc2a7"/>
  <path d="M78.6,176.2c.2,1.2,1.2,3.1-.2,4.4-1.8,0-3.8-.9-4.3-2.2s-.5-3.7.2-5.4c2.1.9,3.1,1.9,4.3,3.2Z" fill="#97a495"/>
  <path d="M19.5,226.4c-1.1,3-5.1,3.5-8.1,2.4,0-2.4,1.7-3.5,3-4.6,1.4.9,3.4,2.5,5.1,2.2Z" fill="#d0d3c6"/>
  <path d="M67.8,169.9c-.2,4.2-4.4,7-8.5,6.7,2.5-3,4.6-5.2,8.5-6.7Z" fill="#c3c6b1"/>
  <path d="M59.4,173.8c-2.6-2-5-4.7-5.9-8.7,3.2.9,6.7,3.9,5.9,8.7Z" fill="#b9b8a4"/>
  <path d="M12.9,223.6c-1.2-.9-1.9-3-2.3-4.7.1-.6,1.8-1.1,2.5-.7s.8,1.3,2.4,1.6c-1-2.8-1.4-5.1-1-7.7,2,0,2.9,2.1,3.3,4.2s.1,2.5-.6,3.3-1.2.5-2.1.7c0,2.1-1.1,2.6-2.2,3.3Z" fill="#919a85"/>
  <path d="M18.5,200.7c.6,1.2-.6,2.5-1.1,3-.8.8-1.9.3-2.7-.4s-1.5-1.6-.5-2.6,3.8-.9,4.3,0Z" fill="#c8cbb1"/>
  <path d="M82.7,182.9c-.7.6-1.8.8-2.4.5-1.2-.5-1.4-1.8-1.3-2.9.4-.3,1.4-1.3,2.3-1.2,1.5.2,1.7,2.5,1.3,3.6Z" fill="#97a495"/>
  <path d="M47.6,184.2l-.9-1c-1.4-1.7-.4,3.6-2.3,6.3,2.8,3.6-2.6,5.6-5.3,3.4-1.5-.8-1.3-3.3-.8-4.7-.9-.7-.9-2.3-1.8-3.4-1.5-1.8-1.1-3.9.7-5.5.4.9,2,.9,2.8,1.3s.6,1.9,1.8,1.5,1.4-1.2,1.1-1.7-1.3-.6-1.7-1l-3.5-3.6c-2.1-1.2-1.8-3,.6-3.2,2.8-1.8,3.8-4.8,3.8-8,2.4,0,2.9,4.3,6.9,2.7,2.1,1.6,1.4,5.4.2,7.5s.8,4.2.5,5.8l-1.2,5.5c-.3-1.3-.7-1.5-1-1.9Z" fill="#efefea"/>
  <path d="M38.4,188.2c1.5,1.1,1.6,3,.8,4.7.2,2.3-4.9,3.3-5.8,1.3-.3.6-.6.6-.8,0-1-.3-2.1-.7-2.4-1.8s1.9-1.7,1.9-2.4-.8-2.6.1-3.1,1.7-1.3,2.8-.6v3.5c1.6.3,2.5-.6,3.5-1.4Z" fill="#788870"/>
  <path d="M32.5,194.1h.8c1.3.2,2.4,1.2,3.3,3,1.7-1.8,4.7-2.2,4,.8,2,.1,1.9.8,0,1.3-.6,1-1.8,2.7-3.2,2s-1.2-1.2-1.6-1.1-.7,1.4-1.2,1.7c-1.8,1.2-5.2-1.5-4.3-3.5s1.6-1.8,1.2-2.1l-1.9-1.5c1.3-.6,2,0,2.8-.7Z" fill="#8b977d"/>
  <path d="M45.2,194.9c1.1.6.7,1.9-.6,2.1,1.3,1.3,1.3,1.9-.1,2-1.4-.3-2.6.3-3.7,1.1v-.8c0,0,0-1.3,0-1.3-.9-2.7,4-6.8,5.8-5.5s1.2,3.7-1.3,2.5Z" fill="#efefea"/>
  <path d="M45,199.6c-.4-.9.3-1.5,1.9-1.7,0-1.3.3-2.4.8-3.1l2.9-.6-.2,16.9c-2.9,1.2-5.4-.2-8.1-.4-2.9-.2-5.4-.3-6.9-3.1,2.7-.8,4.8.1,6.9,1.8,1.3-1.5,2.5-2.2,3.3-4-1.9,0-3.3-1.9-2.5-2.7s2.5-.7,2.6-1.4-.2-1.2-.7-1.9Z" fill="#efefea"/>
  <path d="M47.7,194.8c.2,2-.3,3.9-2.7,4.8,0,0-.5-.3-.5-.6v-2c1.1-.1,1.3-.8.7-2.1l2-1.1c-3.3-1.8-3.4,1.9-6.6,4.1-.4-.9-1.6-.8-2.2-.4s-1.1.9-1.9,2c-1.3-1.6-2.8-3.4-3.3-5.4l5.8-1.3c1.2-.3,2.3-1.2,4.3-.2.3-1.1.3-2.2,1-3.1,0,1.2,1,1.4,2.1,1.8,1.6.5,1,2.5,1.1,3.5Z" fill="#d3d3c5"/>
  <path d="M44.6,197c0-.8,0-1.6.6-2.1.8,0,1.1.3,1.4.7.4.6.3,2.7-.2,2.5-1.1-.4-1.4-1-1.7-1.2Z" fill="#8a957d"/>
</svg>