<?xml version="1.0" encoding="UTF-8"?>
<svg id="Layer_1" xmlns="http://www.w3.org/2000/svg" version="1.1" viewBox="0 0 386.3 140.3">
  <!-- Generator: Adobe Illustrator 30.6.0, SVG Export Plug-In . SVG Version: 2.1.4 Build 109)  -->
  <g>
    <path d="M367.1,62.6c3.5-.9,6.7-.3,9.6,1.8,1.9.6,3.2,1.8,4,3.5l.4.4c3.8,4.2,3.5,8.5.2,12.8-7.7,5.7-15.6,4.7-23.5.5-1.4-8.6,7.4-12.2,9.2-19.2Z" fill="#936936"/>
    <path d="M367.1,62.6c9.9,12.6-4,13.8-9.2,19.2-10.5-2.8-13.4-7.2-2.9-14.1,3.7-2.4,7-6.1,12.2-5Z" fill="#a28a4d"/>
    <path d="M381.4,81.2c0-4.3-.2-8.5-.2-12.8,6.3,4.2,7.4,8.4.2,12.8Z" fill="#a28a4d"/>
    <path d="M380.7,68c-1.3-1.2-2.7-2.4-4-3.5,2.4,0,3.7,1.2,4,3.5Z" fill="#a28a4d"/>
  </g>
  <g>
    <path d="M51.4,30.8C78,3.4,114.4,5.9,147.7.8c25.6-4,49.3,7.5,61.9,29.1,18,30.7-3.3,50.9-26.3,68.2-30.3,9.1-62.1,3.1-92.7,9.4-35.5-4.6-52.2-17.8-23.2-51.5,22-25.6-21.7-9.8-15.9-25.2Z" fill="#a09c63"/>
    <path d="M51.4,30.8c16.1,1.5,32.2,2.9,45.7,4.2,14.2,22.8-69.7,37.3-.3,59.1,8.8-3.4,18.7-4.4,21.3,6.4,4.4,18.1-9.8,26.3-22.4,34.6-6.7,1.5-13.3,3.4-20.1,4.4-36.2,5.2-61.4-11.9-72.5-44.2C-11.1,53.7,26.1,45.5,51.4,30.8Z" fill="#93894a"/>
    <path d="M95.8,135.1c2.7-13.6,21.8-26.8,1.1-41,30.7-40.5,57.9-5.8,86.3,4-22,29.3-51.5,40.8-87.4,37Z" fill="#b9af80"/>
  </g>
</svg>