<?xml version="1.0" encoding="UTF-8"?>
<svg id="Layer_1" xmlns="http://www.w3.org/2000/svg" version="1.1" viewBox="0 0 288.7 376.3">
  <!-- Generator: Adobe Illustrator 30.6.0, SVG Export Plug-In . SVG Version: 2.1.4 Build 109)  -->
  <g>
    <path d="M106.6,247.5c19.9-5,38.2-1.7,54.8,10.5,10.6,3.4,18.3,10.1,23,20.2l2.4,2.4c21.9,24,19.9,48.4,1.3,73-44,32.4-88.8,27-134.1,3.1-8.1-48.8,42.4-69.3,52.7-109.2Z" fill="#936936"/>
    <path d="M106.6,247.5c56.4,72.1-22.6,78.8-52.7,109.2-59.9-15.7-76.2-41.2-16.6-80.6,20.8-13.8,39.7-35,69.3-28.6Z" fill="#a28a4d"/>
    <path d="M188,353.6c-.4-24.3-.9-48.7-1.3-73,35.7,23.7,41.9,48,1.3,73Z" fill="#a28a4d"/>
    <path d="M184.4,278.2c-7.7-6.7-15.3-13.5-23-20.2,13.4.2,20.9,7,23,20.2Z" fill="#a28a4d"/>
  </g>
  <g>
    <path d="M123.8,30.8C150.4,3.4,186.7,5.9,220,.8c25.6-4,49.3,7.5,61.9,29.1,18,30.7-3.3,50.9-26.3,68.2-30.3,9.1-62.1,3.1-92.7,9.4-35.5-4.6-52.2-17.8-23.2-51.5,22-25.6-21.7-9.8-15.9-25.2Z" fill="#a09c63"/>
    <path d="M123.8,30.8c16.1,1.5,32.2,2.9,45.7,4.2,14.2,22.8-69.7,37.3-.3,59.1,8.8-3.4,18.7-4.4,21.3,6.4,4.4,18.1-9.8,26.3-22.4,34.6-6.7,1.5-13.3,3.4-20.1,4.4-36.2,5.2-61.4-11.9-72.5-44.2-14.3-41.6,22.9-49.8,48.3-64.5Z" fill="#93894a"/>
    <path d="M168.1,135.1c2.7-13.6,21.8-26.8,1.1-41,30.7-40.5,57.9-5.8,86.3,4-22,29.3-51.5,40.8-87.4,37Z" fill="#b9af80"/>
  </g>
</svg>